<svg xmlns="http://www.w3.org/2000/svg" viewBox="0 0 521.01 473.14"><defs><style>.cls-1{fill:#fff;}</style></defs><title>logo_navbar</title><g id="Layer_2" data-name="Layer 2"><g id="Layer_1-2" data-name="Layer 1"><path class="cls-1" d="M520.93,319,483.25,88c0-.11-.1-.18-.12-.28a6.4,6.4,0,0,0-1-2.45c-.05-.09-.14-.15-.19-.23a6.81,6.81,0,0,0-1.84-1.62c-.1-.06-.16-.18-.27-.24s-.23-.08-.34-.14l-.21-.13L286,.54A6.84,6.84,0,0,0,283,0L6.28,16.67c-.18,0-.32.09-.49.1a6.46,6.46,0,0,0-1.27.29,7,7,0,0,0-.75.32c-.18.09-.38.14-.56.24s-.27.24-.42.35a6.44,6.44,0,0,0-.65.52,5.85,5.85,0,0,0-.77.88A4.89,4.89,0,0,0,.92,20a6.62,6.62,0,0,0-.53,1.22c-.06.17-.16.3-.21.46s0,.1,0,.15A7.1,7.1,0,0,0,0,23.57a2.44,2.44,0,0,1,0,.27v0L21.18,296.76a6.75,6.75,0,0,0,2.48,4.71L234.78,471.66c.07.06.16.07.23.13s.17.17.28.24a5.32,5.32,0,0,0,1,.46,4.55,4.55,0,0,0,.63.3,6.1,6.1,0,0,0,4.41-.13,2.74,2.74,0,0,0,.28-.05c.08,0,.15-.11.23-.14s.2-.06.28-.11L517.46,326a6.7,6.7,0,0,0,3.47-7M233.39,453.33,39.19,296.78l212.42-54.87Zm36.25-264.67,22-9.82,3.9,44.8L266,231.29Zm32.66,35.26-4.17-48L471.44,98.74l35.31,216.57ZM459.88,89.22l-163,72.63L284.07,14.28ZM277.31,13.77l13.12,151-15.87,7.07-10.72,4.78-61.15-38.32L28,28.78ZM14.38,36.08l28,17.56,213.89,134-4.07,47.19-218,56.32ZM262.21,274.92l3.15-36.56,33.48-8.65,201.65,90.14L246.71,454.75Z"/></g></g></svg>